<svg id="visual" viewBox="0 0 2700 1800" width="2700" height="1800" xmlns="http://www.w3.org/2000/svg" xmlns:xlink="http://www.w3.org/1999/xlink" version="1.1"><path d="M0 91L40.8 106C81.7 121 163.3 151 245.2 151C327 151 409 121 490.8 130C572.7 139 654.3 187 736.2 193C818 199 900 163 981.8 160C1063.7 157 1145.3 187 1227.2 190C1309 193 1391 169 1472.8 172C1554.7 175 1636.3 205 1718.2 211C1800 217 1882 199 1963.8 205C2045.7 211 2127.3 241 2209.2 247C2291 253 2373 235 2454.8 217C2536.7 199 2618.3 181 2659.2 172L2700 163L2700 0L2659.2 0C2618.3 0 2536.7 0 2454.8 0C2373 0 2291 0 2209.2 0C2127.3 0 2045.7 0 1963.8 0C1882 0 1800 0 1718.2 0C1636.3 0 1554.7 0 1472.8 0C1391 0 1309 0 1227.2 0C1145.3 0 1063.7 0 981.8 0C900 0 818 0 736.2 0C654.3 0 572.7 0 490.8 0C409 0 327 0 245.2 0C163.3 0 81.7 0 40.8 0L0 0Z" fill="#bbe2dd"></path><path d="M0 577L40.8 580C81.7 583 163.3 589 245.2 592C327 595 409 595 490.8 607C572.7 619 654.3 643 736.2 604C818 565 900 463 981.8 433C1063.7 403 1145.3 445 1227.2 451C1309 457 1391 427 1472.8 466C1554.7 505 1636.3 613 1718.2 628C1800 643 1882 565 1963.8 559C2045.7 553 2127.3 619 2209.2 655C2291 691 2373 697 2454.8 688C2536.7 679 2618.3 655 2659.2 643L2700 631L2700 161L2659.2 170C2618.3 179 2536.7 197 2454.8 215C2373 233 2291 251 2209.2 245C2127.3 239 2045.7 209 1963.8 203C1882 197 1800 215 1718.2 209C1636.3 203 1554.7 173 1472.8 170C1391 167 1309 191 1227.2 188C1145.3 185 1063.7 155 981.8 158C900 161 818 197 736.2 191C654.3 185 572.7 137 490.8 128C409 119 327 149 245.2 149C163.3 149 81.7 119 40.8 104L0 89Z" fill="#b3dfd8"></path><path d="M0 919L40.8 928C81.7 937 163.3 955 245.2 928C327 901 409 829 490.8 829C572.7 829 654.3 901 736.2 856C818 811 900 649 981.8 586C1063.7 523 1145.3 559 1227.2 598C1309 637 1391 679 1472.8 724C1554.7 769 1636.3 817 1718.2 820C1800 823 1882 781 1963.8 808C2045.7 835 2127.3 931 2209.2 946C2291 961 2373 895 2454.8 886C2536.7 877 2618.3 925 2659.2 949L2700 973L2700 629L2659.2 641C2618.3 653 2536.7 677 2454.8 686C2373 695 2291 689 2209.2 653C2127.3 617 2045.7 551 1963.8 557C1882 563 1800 641 1718.2 626C1636.3 611 1554.7 503 1472.8 464C1391 425 1309 455 1227.2 449C1145.3 443 1063.7 401 981.8 431C900 461 818 563 736.2 602C654.3 641 572.7 617 490.8 605C409 593 327 593 245.2 590C163.3 587 81.7 581 40.8 578L0 575Z" fill="#acdcd3"></path><path d="M0 1099L40.8 1099C81.7 1099 163.3 1099 245.2 1054C327 1009 409 919 490.8 928C572.7 937 654.3 1045 736.2 1009C818 973 900 793 981.8 715C1063.7 637 1145.3 661 1227.2 700C1309 739 1391 793 1472.8 850C1554.7 907 1636.3 967 1718.2 967C1800 967 1882 907 1963.8 922C2045.7 937 2127.3 1027 2209.2 1039C2291 1051 2373 985 2454.8 991C2536.7 997 2618.3 1075 2659.2 1114L2700 1153L2700 971L2659.2 947C2618.3 923 2536.7 875 2454.8 884C2373 893 2291 959 2209.2 944C2127.3 929 2045.7 833 1963.8 806C1882 779 1800 821 1718.2 818C1636.3 815 1554.7 767 1472.8 722C1391 677 1309 635 1227.2 596C1145.3 557 1063.7 521 981.8 584C900 647 818 809 736.2 854C654.3 899 572.7 827 490.8 827C409 827 327 899 245.2 926C163.3 953 81.7 935 40.8 926L0 917Z" fill="#a4d8ce"></path><path d="M0 1423L40.8 1429C81.7 1435 163.3 1447 245.2 1417C327 1387 409 1315 490.8 1297C572.7 1279 654.3 1315 736.2 1324C818 1333 900 1315 981.8 1291C1063.7 1267 1145.3 1237 1227.2 1219C1309 1201 1391 1195 1472.8 1207C1554.7 1219 1636.3 1249 1718.2 1264C1800 1279 1882 1279 1963.8 1288C2045.7 1297 2127.3 1315 2209.2 1318C2291 1321 2373 1309 2454.8 1318C2536.7 1327 2618.3 1357 2659.2 1372L2700 1387L2700 1151L2659.2 1112C2618.3 1073 2536.7 995 2454.8 989C2373 983 2291 1049 2209.2 1037C2127.3 1025 2045.7 935 1963.8 920C1882 905 1800 965 1718.2 965C1636.3 965 1554.7 905 1472.8 848C1391 791 1309 737 1227.2 698C1145.3 659 1063.7 635 981.8 713C900 791 818 971 736.2 1007C654.3 1043 572.7 935 490.8 926C409 917 327 1007 245.2 1052C163.3 1097 81.7 1097 40.8 1097L0 1097Z" fill="#9dd5c9"></path><path d="M0 1531L40.8 1528C81.7 1525 163.3 1519 245.2 1498C327 1477 409 1441 490.8 1426C572.7 1411 654.3 1417 736.2 1426C818 1435 900 1447 981.8 1429C1063.7 1411 1145.3 1363 1227.2 1348C1309 1333 1391 1351 1472.8 1360C1554.7 1369 1636.3 1369 1718.2 1381C1800 1393 1882 1417 1963.8 1426C2045.7 1435 2127.3 1429 2209.2 1414C2291 1399 2373 1375 2454.8 1384C2536.7 1393 2618.3 1435 2659.2 1456L2700 1477L2700 1385L2659.2 1370C2618.3 1355 2536.7 1325 2454.8 1316C2373 1307 2291 1319 2209.2 1316C2127.3 1313 2045.7 1295 1963.8 1286C1882 1277 1800 1277 1718.2 1262C1636.3 1247 1554.7 1217 1472.8 1205C1391 1193 1309 1199 1227.2 1217C1145.3 1235 1063.7 1265 981.8 1289C900 1313 818 1331 736.2 1322C654.3 1313 572.7 1277 490.8 1295C409 1313 327 1385 245.2 1415C163.3 1445 81.7 1433 40.8 1427L0 1421Z" fill="#94cec1"></path><path d="M0 1603L40.8 1612C81.7 1621 163.3 1639 245.2 1630C327 1621 409 1585 490.8 1567C572.7 1549 654.3 1549 736.2 1558C818 1567 900 1585 981.8 1570C1063.7 1555 1145.3 1507 1227.2 1483C1309 1459 1391 1459 1472.8 1462C1554.7 1465 1636.3 1471 1718.2 1486C1800 1501 1882 1525 1963.8 1528C2045.7 1531 2127.3 1513 2209.2 1507C2291 1501 2373 1507 2454.8 1525C2536.7 1543 2618.3 1573 2659.2 1588L2700 1603L2700 1475L2659.2 1454C2618.3 1433 2536.7 1391 2454.8 1382C2373 1373 2291 1397 2209.2 1412C2127.3 1427 2045.7 1433 1963.8 1424C1882 1415 1800 1391 1718.2 1379C1636.3 1367 1554.7 1367 1472.8 1358C1391 1349 1309 1331 1227.2 1346C1145.3 1361 1063.7 1409 981.8 1427C900 1445 818 1433 736.2 1424C654.3 1415 572.7 1409 490.8 1424C409 1439 327 1475 245.2 1496C163.3 1517 81.7 1523 40.8 1526L0 1529Z" fill="#8cc7ba"></path><path d="M0 1729L40.8 1729C81.7 1729 163.3 1729 245.2 1726C327 1723 409 1717 490.8 1720C572.7 1723 654.3 1735 736.2 1741C818 1747 900 1747 981.8 1738C1063.7 1729 1145.3 1711 1227.2 1699C1309 1687 1391 1681 1472.8 1675C1554.7 1669 1636.3 1663 1718.2 1675C1800 1687 1882 1717 1963.8 1726C2045.7 1735 2127.3 1723 2209.2 1723C2291 1723 2373 1735 2454.8 1741C2536.7 1747 2618.3 1747 2659.2 1747L2700 1747L2700 1601L2659.2 1586C2618.3 1571 2536.7 1541 2454.8 1523C2373 1505 2291 1499 2209.2 1505C2127.3 1511 2045.7 1529 1963.8 1526C1882 1523 1800 1499 1718.2 1484C1636.3 1469 1554.7 1463 1472.8 1460C1391 1457 1309 1457 1227.2 1481C1145.3 1505 1063.7 1553 981.8 1568C900 1583 818 1565 736.2 1556C654.3 1547 572.7 1547 490.8 1565C409 1583 327 1619 245.2 1628C163.3 1637 81.7 1619 40.8 1610L0 1601Z" fill="#83c0b2"></path><path d="M0 1801L40.8 1801C81.7 1801 163.3 1801 245.2 1801C327 1801 409 1801 490.8 1801C572.7 1801 654.3 1801 736.2 1801C818 1801 900 1801 981.8 1801C1063.7 1801 1145.3 1801 1227.2 1801C1309 1801 1391 1801 1472.8 1801C1554.7 1801 1636.3 1801 1718.2 1801C1800 1801 1882 1801 1963.8 1801C2045.7 1801 2127.3 1801 2209.2 1801C2291 1801 2373 1801 2454.8 1801C2536.7 1801 2618.3 1801 2659.2 1801L2700 1801L2700 1745L2659.2 1745C2618.3 1745 2536.7 1745 2454.8 1739C2373 1733 2291 1721 2209.2 1721C2127.3 1721 2045.7 1733 1963.8 1724C1882 1715 1800 1685 1718.2 1673C1636.3 1661 1554.7 1667 1472.8 1673C1391 1679 1309 1685 1227.2 1697C1145.3 1709 1063.7 1727 981.8 1736C900 1745 818 1745 736.2 1739C654.3 1733 572.7 1721 490.8 1718C409 1715 327 1721 245.2 1724C163.3 1727 81.7 1727 40.8 1727L0 1727Z" fill="#7bb9ab"></path></svg>